<?xml version="1.0" encoding="utf-8"?>
<!-- Generator: Adobe Illustrator 24.0.3, SVG Export Plug-In . SVG Version: 6.00 Build 0)  -->
<svg version="1.1" id="Layer_1" xmlns="http://www.w3.org/2000/svg" xmlns:xlink="http://www.w3.org/1999/xlink" x="0px" y="0px"
	 viewBox="0 0 190 156" style="enable-background:new 0 0 190 156;" xml:space="preserve">
<style type="text/css">
	.st0{fill:#FFFFFF;}
	.st1{fill:#A4A3A0;}
	.st2{fill:#773D07;}
	.st3{fill:#806F57;}
	.st4{fill:#7D7F7D;}
	.st5{fill:#989791;}
	.st6{fill:#BDBDB9;}
	.st7{fill:#3F4F4E;}
	.st8{fill:#E9EBE3;}
	.st9{fill:#617774;}
	.st10{fill:#363F3B;}
	.st11{fill:#5D6968;}
	.st12{fill:#A9B3B5;}
	.st13{fill:#2C3838;}
	.st14{fill:#C3CDCF;}
	.st15{fill:#FEB164;}
	.st16{fill:#A8856A;}
	.st17{fill:#FFCB9A;}
	.st18{fill:#9D8E7F;}
	.st19{fill:#799293;}
	.st20{fill:#835432;}
	.st21{fill:#9BA5AA;}
	.st22{fill:#ACCDFC;}
	.st23{fill:#CDAA87;}
	.st24{fill:#D0E3EA;}
	.st25{fill:#C99561;}
	.st26{fill:#51676D;}
	.st27{fill:#B18456;}
	.st28{fill:#E91B2D;}
	.st29{fill:#6B9FBD;}
	.st30{fill:#38525A;}
	.st31{fill:#46768B;}
</style>
<path class="st0" d="M190,0v156H0V0H190z"/>
<path class="st1" d="M135.3,7.3l-0.7,0.3L135.3,7.3z"/>
<path class="st2" d="M146,59l3-10l-8,3c0.3-5-0.5-15.7-5.1-18.7c-6.7-4.3-20-3.6-22.3-13.3C111,9.5,126.7,6,134,7.5
	c9.6,2,19.7,6.5,24.7,15.5C165.4,35,159.2,54.8,146,59L146,59z"/>
<path class="st3" d="M126,7v1h-3L126,7 M138.3,8.3l-0.7,0.3L138.3,8.3 M141.3,9.3l-0.7,0.3L141.3,9.3z"/>
<path class="st4" d="M27,12v1h-4L27,12z"/>
<path class="st5" d="M150,13l-1,1L150,13z"/>
<path class="st6" d="M31.3,13.3l-0.7,0.3L31.3,13.3z"/>
<path class="st7" d="M39,30c-4.6-2.1-12.3-5.4-17-3c-8.7-16.4,17.8-17.4,20.5-7.9C43.6,22.9,40.7,26.9,39,30L39,30z"/>
<path class="st4" d="M34.3,14.3l-0.7,0.3L34.3,14.3z"/>
<path class="st1" d="M39.3,15.3l-0.7,0.3L39.3,15.3 M154,16l-1,1L154,16z"/>
<path class="st8" d="M69,20c8.5-5.4,21.3-4,31-4c3.2,0,8.7-1,11.4,1c4.9,3.6,0,17.5-5.5,18.1C92.3,36.4,81.7,21.7,69,20L69,20z"/>
<path class="st5" d="M155,17l-1,1L155,17 M43,17l-1,1L43,17z"/>
<path class="st1" d="M156,18l-1,1L156,18z"/>
<path class="st5" d="M45.3,18.3l-0.7,0.3L45.3,18.3z"/>
<path class="st9" d="M44,18c7.5,2.4,22.8,8.6,30,5l13,5l-1,3l-14-3l-1,6l-29-6L44,18z"/>
<path class="st10" d="M82,26l-16-3l1-4C71.9,20,80.2,20.8,82,26z"/>
<path class="st11" d="M66.7,19.7l-0.3,0.7L66.7,19.7z"/>
<path class="st4" d="M76.3,21.3l-0.7,0.3L76.3,21.3z"/>
<path class="st5" d="M159,22l-1,1L159,22z"/>
<path class="st3" d="M114.7,22.7l-0.3,0.7L114.7,22.7z"/>
<path class="st5" d="M62.3,22.3l-0.7,0.3L62.3,22.3z"/>
<path class="st12" d="M82,26v1l-8-4L82,26z"/>
<path class="st6" d="M73,24v1l-8-1H73z"/>
<path class="st13" d="M21,23v4h1c3.3-3.4,13.4,0.8,17,3l2-6h1C41.3,37.4,18.3,30,21,23z"/>
<path class="st14" d="M20,23v4h-1L20,23z"/>
<path class="st15" d="M138,35c-6.8-0.9-16-1.8-20-8l-2,1l-2-4L138,35z"/>
<path class="st16" d="M114,24l-1,4h-1L114,24z"/>
<path class="st17" d="M115,25l1,3l2-1c5.4,5.5,12.8,6.6,20,8l4,13c-4.5-0.6-10.7-1.3-14.7-3.5c-5.1-2.9-4.4-6.4-11.3-4.5
	c3.3,10.1,15.1,7.1,25,9v4l8-4l-3,11l-6-2c-3.8,9.8-13,9-22,9l1-3c-6.7-0.5-9.1-5.9-10-12l6,1v-1l-6-3l5-5l-6,4c0.7-4.5,3.7-6.8,8-8
	v-1C110.7,35.3,110.7,29.5,115,25z"/>
<path class="st3" d="M160.7,26.7l-0.3,0.7L160.7,26.7z"/>
<path class="st1" d="M83.3,27.3l-0.7,0.3L83.3,27.3z"/>
<path class="st18" d="M112,28l4,11v1l-6,3c1.7-3.6,2-5.2-1-8L112,28z"/>
<path class="st7" d="M85,30v1l-2,1c5.3,4.8-3.9,8.1-8,7.7c-10.6-1-23.8-5.4-34-8.7v-2c8.2-2.4,22.2,1.7,30,5l1-6L85,30z"/>
<path class="st5" d="M21.3,28.3l-0.7,0.3L21.3,28.3z"/>
<path class="st18" d="M162,29v8h-1L162,29z"/>
<path class="st19" d="M91.3,29.3l-0.7,0.3L91.3,29.3z"/>
<path class="st7" d="M88,29C96.8,32.5,85.5,42.5,88,29z"/>
<path class="st13" d="M88,29c-0.4,3.5-1.4,7.4,3,8c-1.8,5.6-8.2,3-13,3v-1c4.1-0.6,7.7-2.8,5-7v-1L88,29z"/>
<path class="st12" d="M25.3,29.3l-0.7,0.3L25.3,29.3z"/>
<path class="st16" d="M93,30l7,3l-1,6h-1v-5h-1v4h-4V30z"/>
<path class="st9" d="M31.3,30.3l-0.7,0.3L31.3,30.3z"/>
<path class="st5" d="M43,31v1h-4L43,31 M35.3,31.3l-0.7,0.3L35.3,31.3z"/>
<path class="st12" d="M45.3,32.3l-0.7,0.3L45.3,32.3z"/>
<path class="st8" d="M72,39l4.6,14L71.5,62L55,120c-35.2-2.5-55.6-49.9-32.6-76c3.6-4.1,9.1-9.9,14.6-11.5
	C46.5,29.7,63.1,35.6,72,39L72,39z"/>
<path class="st20" d="M139,34v8h-1L139,34z"/>
<path class="st9" d="M111,42c-5.4-0.8-9.5-2.4-11-8C105.6,35.2,110.5,35.5,111,42z"/>
<path class="st17" d="M98,34v5h1v-4h1l-3,13c-5.4-3.7-6.1-7.8-5-14h1v4h1l1-2l2,2L98,34z"/>
<path class="st21" d="M55.3,34.3l-0.7,0.3L55.3,34.3z"/>
<path class="st22" d="M112,41h-1l-4-5C111,34.7,112.5,37.3,112,41z"/>
<path class="st1" d="M60.3,35.3l-0.7,0.3L60.3,35.3z"/>
<path class="st8" d="M158,111c0-16.6-2.7-30.7-9-46l-8,6l-6,1l9-10h1l2,2l-2-4c10.2-6.3,12.9-13.2,17-24
	C192.3,49.6,187.5,99.6,158,111z"/>
<path class="st23" d="M101,36v4h-1L101,36z"/>
<path class="st4" d="M116,40c1.2-0.5,2.7-1.4,4-1.4c11-0.1,0.9,15.6-2.8,6.3C116.6,43.4,116.4,41.6,116,40z"/>
<path class="st5" d="M71.3,38.3l-0.7,0.3L71.3,38.3z"/>
<path class="st24" d="M121,47l-2-7C123.8,39.9,125,44.4,121,47z"/>
<path class="st7" d="M110,41l-1,3l-9-2l1-3L110,41z"/>
<path class="st4" d="M73,39l13,1v1l-7,3h-1c-2.6-1.7-4.5-0.4-6,2h-1L73,39z"/>
<path class="st15" d="M91,40c2.1,4.4,6.1,7.8,2,12C91.3,47.7,87.8,44.2,91,40z"/>
<path class="st22" d="M120,41l1,6l-3-6H120z"/>
<path class="st25" d="M100,41v4l-4,1L100,41z"/>
<path class="st16" d="M89,41v4h-1L89,41z"/>
<path class="st8" d="M88,41l1,12h-1l-9-12H88z"/>
<path class="st0" d="M107,43l4,22l10,6l-14-6c5.7,9.7,16.7,12,27,8.3c4.6-1.6,10.6-10.5,15-5.1c9.6,11.8,7.1,33.7,7,47.8
	c0,4.1,0.4,13-2,16.4c-3.3,4.6-18.5,5.9-21.4,0.2c-2.7-5.5-0.6-16.5-0.6-22.6l11,3v-1c-9.2-0.7-13.8-13.9-9-21.6
	c2.3-3.6,7.2-5.8,10-9.4c-23.3,9.6-48-0.2-52-27l5-5l2,3h1l-1-5h1l4,9h1l-6-13L107,43L107,43z"/>
<path class="st26" d="M78,42c-0.1,5.1,0.5,7.6,6,8v1l-7,3l-5-7v-4l4,2L78,42z"/>
<path class="st14" d="M76,43v2h-2v-2H76z"/>
<path class="st16" d="M114,44l-5,5l6,3v1C107.1,52.4,108.5,47.6,114,44z"/>
<path class="st18" d="M108,44l5,22h-1C109.7,59.3,105,51.2,108,44z"/>
<path class="st19" d="M89,51h1l2,4l-1,8l4,4h-4l1-3l-20,2h-1l2-3c-0.2-9.3,11.5,0.9,13.7-6.2c1.9-6-9.6-5.7-8.7-12.8L89,51L89,51z"
	/>
<path class="st16" d="M141,48v1l-16-3L141,48z"/>
<path class="st18" d="M101,48h-4C98.6,45.9,99.5,45.8,101,48z"/>
<path class="st16" d="M91,46l2,6l3-2l-4,4l-1-5l-1,2h-1L91,46z"/>
<path class="st6" d="M102,48l1,5h-1l-2-5H102z"/>
<path class="st12" d="M99,48l1,4h-1l-2-4H99z"/>
<path class="st16" d="M96.7,48.7l-0.3,0.7L96.7,48.7z"/>
<path class="st8" d="M91,49l1,5L91,49z"/>
<path class="st14" d="M76,54c1.2-0.7,2.7-1.7,4-2.1C93.2,48.1,82.4,69.6,76,54z"/>
<path class="st27" d="M147,52l-3,2L147,52z"/>
<path class="st25" d="M142.3,52.3l-0.7,0.3L142.3,52.3z"/>
<path class="st5" d="M104,52l1,4h-1V52 M100.7,52.7l-0.3,0.7L100.7,52.7z"/>
<path class="st11" d="M85,58h-5C80.8,53,84.2,53,85,58z"/>
<path class="st23" d="M120,54l-1,3l-8-1L120,54z"/>
<path class="st14" d="M102,54l3,8h-1l-4-8H102z"/>
<path class="st6" d="M118,55v1l-5,1v-2H118z"/>
<path class="st8" d="M92,55c3.3,9.8,8.5,24.1,18,29v-1l-5-4l27,6v1l-22-2v1c9.8,3,7,28.8,7,38h1v-3h1v10h-1l-1-3l-11,3h-1
	c-1.3-15.6-7.1-31.8-10.9-47c-1.3-5.2-5.3-13.2-0.1-17l2,5h1C95,66.3,89,59.9,92,55L92,55z"/>
<path class="st19" d="M84,55v2h-3v-2H84z"/>
<path class="st20" d="M118,56l-2,3L118,56z"/>
<path class="st28" d="M113,56l3,3C113.7,58.7,112,58.5,113,56z"/>
<path class="st6" d="M106,56l1,3L106,56z"/>
<path class="st9" d="M78,59l-6,1C73.7,57.2,75.8,56.1,78,59z"/>
<path class="st27" d="M141,58l6,6c-5.1-2.4-7.3-0.1-12,2L141,58z"/>
<path class="st16" d="M116,59v1h-3L116,59z"/>
<path class="st12" d="M108,59l1,3L108,59z"/>
<path class="st11" d="M72,60l1,3L72,60z"/>
<path class="st24" d="M144,61v1l-6,3L144,61z"/>
<path class="st7" d="M91.7,61.7l-0.3,0.7L91.7,61.7z"/>
<path class="st12" d="M144,62l-4,3L144,62z"/>
<path class="st6" d="M106,62l1,3L106,62z"/>
<path class="st27" d="M114,63l5,1l-1,3l12,1v1l-2,6l-2-6c-3.7,0-9.4,0.4-10-4l-3,1L114,63z"/>
<path class="st6" d="M92,64c-3.8,6.7-16.1,6.6-20,0C79.3,66.3,84.7,65.9,92,64z"/>
<path class="st26" d="M90,64v1H74v-1H90z"/>
<path class="st1" d="M149,65c5.3,9.1,7.9,19.5,8,30h-1L149,65z"/>
<path class="st21" d="M140,65l-5,7l5-2v1c-3.2,1.8-10.8,6.4-12,1h1l1,2h1l4-8L140,65z"/>
<path class="st7" d="M115.3,65.3l-0.7,0.3L115.3,65.3z"/>
<path class="st21" d="M108,65l2,4L108,65z"/>
<path class="st3" d="M135,66v1l-4,5h-2L135,66z"/>
<path class="st15" d="M133,66v1l-12,1v-1L133,66z"/>
<path class="st7" d="M73,66c7.9,5.4,1.2,15.5-1.3,23c-6.8,20.5-15.8,41-20.7,62h-5l28-83L73,66z"/>
<path class="st8" d="M136,67l-6,4L136,67z"/>
<path class="st21" d="M96,67l1,4h-1l-2-4H96z"/>
<path class="st9" d="M91,67l19,85c-5.7-3.6-5.6-14.9-7.3-21c-5.6-20.5-9.6-41.4-14.7-62l1-2H91z"/>
<path class="st24" d="M121,69h1v4h4v1c-5.5-0.2-12.9-1-17-5H121z"/>
<path class="st7" d="M90,68v1c-3.4,5,2.2,17.5,3.7,23c5.4,19.8,9.1,40.1,14.3,60h-4L85,70h-1v29h-1v-5h-1l1,54h-4V69L90,68z"/>
<path class="st4" d="M80,68l-1,2h-1l-1-2H80 M74,68l-15,47h-1c-1.5-11,5.9-24.6,9.3-35C68.9,75.4,69.7,70.7,74,68z"/>
<path class="st15" d="M130,69l-2,5h-1L130,69z"/>
<path class="st21" d="M126,69v1h-3v1l3,2h-4v-4H126z"/>
<path class="st0" d="M126,70v1h-3L126,70z"/>
<path class="st6" d="M85,70v13h-1L85,70z"/>
<path class="st8" d="M79,70l-1,57l-16-3c-1.3-12.3,6.5-26.4,10.3-38C74.1,80.6,75.4,74.5,79,70z"/>
<path class="st21" d="M126,74v1l-14-3L126,74z"/>
<path class="st24" d="M131,72v2h-2v-2H131z"/>
<path class="st21" d="M99,72l1,3L99,72z"/>
<path class="st8" d="M86,74l12,53l-14,1C84,112.2,79.8,88.8,86,74z"/>
<path class="st12" d="M101,75l9,8v1C105.9,82.6,100.9,79.7,101,75 M86.7,76.7l-0.3,0.7L86.7,76.7z"/>
<path class="st5" d="M87.7,80.7l-0.3,0.7L87.7,80.7z"/>
<path class="st12" d="M144,81c-3,4.4-9.9,5.6-15,6v24h-1V87h-11v4h-1l-6-6v-1C123.5,85.8,131,84.7,144,81z"/>
<path class="st24" d="M141,84c-1.8,3.1-5.2,4.2-7,7.2c-2.9,5-0.6,12.8,1,17.8l-3-1v26c-4.1-3-3-8.3-3-13V87L141,84z"/>
<path class="st26" d="M128,87v15h-1V88h-1v14h-1V87H128z"/>
<path class="st8" d="M118,107l-1-20C123.5,89.6,122.3,102.8,118,107z"/>
<path class="st29" d="M127,88v14h-1L127,88z"/>
<path class="st14" d="M125,88v32l-2,12L125,88z"/>
<path class="st24" d="M124,88v43h-2c0-8,1.6-17.1-3-24v-1l2-18H124z"/>
<path class="st12" d="M89.7,89.7l-0.3,0.7L89.7,89.7z"/>
<path class="st5" d="M117,91v9h-1L117,91z"/>
<path class="st1" d="M90.7,93.7l-0.3,0.7L90.7,93.7z"/>
<path class="st13" d="M83,94v53h-1v-36L83,94z"/>
<path class="st6" d="M157,95v33h-2L157,95z"/>
<path class="st14" d="M118,96l2,11v1l-3,7h-1L118,96z"/>
<path class="st4" d="M84,99v8h-1L84,99z"/>
<path class="st21" d="M98.7,100.7l-0.3,0.7L98.7,100.7z"/>
<path class="st10" d="M128,102v31h-1v-29h-1v29h-1v-31H128z"/>
<path class="st12" d="M92.7,102.7l-0.3,0.7L92.7,102.7z"/>
<path class="st30" d="M127,104v29l7,1l-1,4l-10-3l4,10c4.3-1.5,7.5-2.3,10,2h2l1-4l9,7v-11h-12v-3l14-1l-1,17c-6.4,0-21.5,5.9-23-3
	c-3.8,0.2-9.1,2-12.7,0.3c-3.7-1.9-1.8-7.6,1.7-8.5c2.8-0.7,5.6,2.1,8,3.2l-2-12l4,1L127,104L127,104z"/>
<path class="st21" d="M99.7,104.7l-0.3,0.7L99.7,104.7z"/>
<path class="st5" d="M79,104v18h-1L79,104z"/>
<path class="st1" d="M93.7,106.7l-0.3,0.7L93.7,106.7 M84,107v21h-1L84,107 M143,112v1c-4.9-0.1-7.9-1.1-11-5L143,112z"/>
<path class="st0" d="M121,108l1,23l-3-1l2,9l-12,6l-3-17l11-1l1,3h1l-1-22H121z"/>
<path class="st19" d="M129,111v22h-1L129,111z"/>
<path class="st11" d="M58,112c-0.2,9.4-5.1,32.5-13,38C46.6,139.1,51.4,120.9,58,112z"/>
<path class="st5" d="M118,114v9h-1L118,114z"/>
<path class="st4" d="M96.7,118.7l-0.3,0.7L96.7,118.7z"/>
<path class="st0" d="M62,120v4l16,3v17l-25,1C54.1,137.5,56.9,125.8,62,120z"/>
<path class="st4" d="M79,122v26h-1L79,122z"/>
<path class="st12" d="M97.7,123.7l-0.3,0.7L97.7,123.7z"/>
<path class="st1" d="M105,125v3h-1L105,125z"/>
<path class="st0" d="M98,127l4,20h-1v-3H84v-16L98,127z"/>
<path class="st5" d="M156,128v4h-1L156,128z"/>
<path class="st14" d="M84,128v20h-1L84,128z"/>
<path class="st5" d="M123,131v1l-4-1H123z"/>
<path class="st6" d="M156,132l-5,4L156,132z"/>
<path class="st14" d="M122,132v7h-1L122,132z"/>
<path class="st19" d="M138,135l-1,7h-1l-2-6L138,135z"/>
<path class="st31" d="M133,136h1v7l-7,2l-4-10L133,136z"/>
<path class="st8" d="M151,136v10l18,2c-2.5,7.7-22.1,6-29,6v-1C153.3,152.9,147.3,144.7,151,136z"/>
<path class="st0" d="M136,136v6h-2v-6H136z"/>
<path class="st14" d="M100.7,136.7l-0.3,0.7L100.7,136.7z"/>
<path class="st21" d="M107.7,138.7l-0.3,0.7L107.7,138.7z"/>
<path class="st31" d="M149,139v11c-4.8-1.4-10.4-6.2-12-11H149z"/>
<path class="st24" d="M124,144l-7-4C120.6,138.9,122.4,140.9,124,144z"/>
<path class="st6" d="M101.7,140.7l-0.3,0.7L101.7,140.7z"/>
<path class="st13" d="M140,145l-4-3L140,145z"/>
<path class="st24" d="M139,147l-5-5L139,147z"/>
<path class="st1" d="M108.7,142.7l-0.3,0.7L108.7,142.7z"/>
<path class="st8" d="M112,144l-1,5h15c2.1,3.9,4.7,4.8,9,5v1c-34.7,0-68.6,0.4-103-4c1.5-5.1,9.4-4.5,14-5c0.2,3.6,1.5,4.4,5,5l1-6
	l26-1v4h6v-4l19,2C104.9,158.3,109,146,112,144z"/>
<path class="st5" d="M102.7,144.7l-0.3,0.7L102.7,144.7z"/>
<path class="st6" d="M112,145v4h-1L112,145z"/>
<path class="st4" d="M104,148v3h-1L104,148z"/>
<path class="st19" d="M127,149v3h-1L127,149 M124,149v1h-3L124,149z"/>
<path class="st11" d="M148,152v1h-8L148,152z"/>
<path class="st4" d="M108,152v1h-3L108,152z"/>
<path class="st6" d="M140,153v1h-3L140,153z"/>
</svg>
